<svg width="486" height="138" viewBox="0 0 486 138" fill="none" xmlns="http://www.w3.org/2000/svg">
<path d="M303.06 75.6294H288.676V19.0094H303.06V27.8143C306.641 21.9832 312.63 18.951 320.556 18.951V33.2956H316.74C308.227 33.2956 303.06 37.2024 303.06 48.1649V75.6294Z" fill="black"/>
<path d="M-6.10352e-05 4.315H44.3259V15.8606H14.3839V34.1119H35.0497V45.4826H14.3839V75.6294H-6.10352e-05V4.315Z" fill="black"/>
<path d="M69.1601 64.0838C76.7924 64.0838 84.0724 58.5443 84.0724 47.3485C84.0724 35.9779 76.9686 30.6133 69.3363 30.6133C61.704 30.6133 54.8349 36.0362 54.8349 47.3485C54.8349 58.5443 61.4104 64.0838 69.1601 64.0838ZM69.1601 76.5624C52.7214 76.5624 40.2749 65.1334 40.2749 47.3485C40.2749 29.447 53.1324 18.1347 69.5711 18.1347C86.0099 18.1347 98.8673 29.5054 98.8673 47.3485C98.8673 65.0751 85.7163 76.5624 69.1601 76.5624Z" fill="black"/>
<path d="M117.302 75.6294H102.918V19.0094H117.302V27.8143C120.884 21.9832 126.872 18.951 134.798 18.951V33.2956H130.982C122.469 33.2956 117.302 37.2024 117.302 48.1649V75.6294Z" fill="black"/>
<path d="M136.794 19.0094H151.413L161.511 62.1013L172.372 19.0094H187.637L198.322 62.0429L208.42 19.0094H222.158L205.543 75.6294H189.985L179.593 36.0945L169.202 75.6294H153.585L136.794 19.0094Z" fill="black"/>
<path d="M249.928 30.6716C242.237 30.6716 234.898 36.3861 234.898 47.1153C234.898 57.8446 242.178 63.9672 249.928 63.9672C257.854 63.9672 265.075 58.0195 265.075 47.2902C265.016 36.561 257.795 30.6716 249.928 30.6716ZM246.17 18.0764C255.329 18.0764 261.611 22.3914 265.016 27.0563V19.0094H279.518V75.6294H265.016V67.3493C261.611 72.2474 255.153 76.5624 246.112 76.5624C231.728 76.5624 220.162 64.7836 220.162 47.1153C220.162 29.4471 231.669 18.0764 246.17 18.0764Z" fill="black"/>
<path d="M350.674 30.6716C342.983 30.6716 335.644 36.3861 335.644 47.1153C335.644 57.8445 342.924 63.9672 350.674 63.9672C358.6 63.9672 365.821 58.0195 365.821 47.2902C365.762 36.561 358.6 30.6716 350.674 30.6716ZM347.034 18.0764C354.549 18.0764 361.77 21.5751 365.645 26.8814V0H380.264V75.6294H365.645V67.2326C362.24 72.4223 355.899 76.5041 346.917 76.5041C332.415 76.5041 320.908 64.7252 320.908 47.057C320.908 29.4471 332.474 18.0764 347.034 18.0764Z" fill="black"/>
<path d="M486 75.6294H470.794V0H486V75.6294Z" fill="#FA4616"/>
<path d="M429.932 59.8854L450.422 0H466.685L439.737 75.6294H420.186L393.239 0H409.56L429.932 59.8854Z" fill="#FA4616"/>
<path d="M118.711 129.917H103.036L100.452 137.381H92.1744L106.323 98.1957H115.541L129.69 137.381H121.353L118.711 129.917ZM116.598 123.619L110.903 107.234L105.208 123.619H116.598Z" fill="#595959"/>
<path d="M159.573 116.214C158.575 118.022 156.99 119.538 154.876 120.646C152.763 121.753 150.062 122.337 146.833 122.337H140.199V137.381H132.273V98.2541H146.775C149.827 98.2541 152.411 98.7789 154.583 99.8285C156.755 100.878 158.34 102.336 159.397 104.144C160.454 105.951 160.982 108.05 160.982 110.383C161.1 112.424 160.571 114.348 159.573 116.214ZM151.354 114.523C152.411 113.532 152.939 112.132 152.939 110.324C152.939 106.534 150.767 104.61 146.481 104.61H140.199V115.981H146.481C148.712 115.981 150.297 115.514 151.354 114.523Z" fill="#595959"/>
<path d="M183.057 98.1958V125.66C183.057 129.45 181.942 132.424 179.711 134.524C177.48 136.623 174.544 137.672 170.787 137.672C167.029 137.672 163.977 136.564 161.687 134.407C159.397 132.249 158.223 129.217 158.223 125.31H166.149C166.208 127.001 166.619 128.284 167.382 129.217C168.145 130.15 169.26 130.617 170.728 130.617C172.137 130.617 173.253 130.15 174.016 129.276C174.779 128.401 175.131 127.118 175.131 125.602V98.1375H183.057V98.1958Z" fill="#595959"/>
<path d="M208.42 135.865C206.013 134.524 204.134 132.658 202.725 130.209C201.375 127.759 200.67 124.961 200.67 121.812C200.67 118.663 201.375 115.806 202.784 113.415C204.193 110.966 206.13 109.1 208.596 107.759C211.062 106.418 213.763 105.776 216.757 105.776C219.751 105.776 222.51 106.418 224.917 107.759C227.383 109.1 229.321 110.966 230.73 113.415C232.139 115.864 232.843 118.663 232.843 121.812C232.843 125.019 232.139 127.818 230.671 130.209C229.203 132.658 227.266 134.524 224.8 135.865C222.334 137.206 219.575 137.847 216.522 137.847C213.528 137.847 210.827 137.206 208.42 135.865ZM220.573 129.975C221.806 129.276 222.863 128.226 223.567 126.885C224.33 125.485 224.683 123.794 224.683 121.812C224.683 118.838 223.919 116.564 222.334 114.989C220.749 113.415 218.87 112.599 216.581 112.599C214.291 112.599 212.412 113.415 210.886 114.989C209.359 116.564 208.596 118.838 208.596 121.812C208.596 124.786 209.359 127.06 210.827 128.634C212.295 130.209 214.174 131.025 216.463 131.025C217.99 131.025 219.34 130.675 220.573 129.975Z" fill="#595959"/>
<path d="M261.846 109.333C264.136 111.666 265.31 114.931 265.31 119.129V137.381H257.384V120.237C257.384 117.788 256.738 115.864 255.505 114.523C254.272 113.182 252.57 112.54 250.397 112.54C248.225 112.54 246.464 113.182 245.231 114.523C243.998 115.864 243.352 117.73 243.352 120.237V137.381H235.426V106.301H243.352V110.149C244.409 108.808 245.759 107.759 247.403 107.001C249.047 106.243 250.867 105.834 252.805 105.834C256.503 105.834 259.556 107.001 261.846 109.333Z" fill="#595959"/>
<path d="M309.988 98.1957V104.552H299.479V137.381H291.553V104.552H281.044V98.1957H309.988Z" fill="#595959"/>
<path d="M316.035 135.865C313.628 134.524 311.749 132.658 310.34 130.209C308.99 127.759 308.285 124.961 308.285 121.812C308.285 118.663 308.99 115.806 310.399 113.415C311.808 110.966 313.745 109.1 316.211 107.759C318.677 106.418 321.378 105.776 324.372 105.776C327.366 105.776 330.125 106.418 332.533 107.759C334.998 109.1 336.936 110.966 338.345 113.415C339.754 115.864 340.458 118.663 340.458 121.812C340.458 125.019 339.754 127.818 338.286 130.209C336.818 132.658 334.881 134.524 332.415 135.865C329.949 137.206 327.19 137.847 324.137 137.847C321.143 137.847 318.442 137.206 316.035 135.865ZM328.188 129.975C329.421 129.276 330.478 128.226 331.182 126.885C331.945 125.485 332.298 123.794 332.298 121.812C332.298 118.838 331.535 116.564 329.949 114.989C328.364 113.415 326.485 112.599 324.196 112.599C321.906 112.599 320.027 113.415 318.501 114.989C316.974 116.564 316.211 118.838 316.211 121.812C316.211 124.786 316.974 127.06 318.442 128.634C319.91 130.209 321.789 131.025 324.078 131.025C325.605 131.025 326.955 130.675 328.188 129.975Z" fill="#595959"/>
<path d="M372.631 106.301V137.381H364.647V133.474C363.649 134.815 362.298 135.865 360.655 136.623C359.011 137.381 357.249 137.789 355.312 137.789C352.846 137.789 350.674 137.264 348.795 136.273C346.916 135.223 345.449 133.707 344.333 131.725C343.276 129.742 342.748 127.351 342.748 124.552V106.301H350.674V123.386C350.674 125.835 351.32 127.759 352.553 129.101C353.786 130.442 355.488 131.083 357.66 131.083C359.833 131.083 361.535 130.442 362.827 129.101C364.118 127.759 364.706 125.894 364.706 123.386V106.301H372.631Z" fill="#595959"/>
<path d="M388.248 107.234C389.892 106.301 391.771 105.834 393.884 105.834V114.056H391.771C389.305 114.056 387.426 114.639 386.135 115.806C384.902 116.972 384.256 119.013 384.256 121.87V137.322H376.33V106.243H384.256V111.082C385.254 109.45 386.604 108.167 388.248 107.234Z" fill="#595959"/>
</svg>
