<svg width="130" height="44" viewBox="0 0 130 44" fill="none" xmlns="http://www.w3.org/2000/svg">
<path d="M0 0H44.2478V44H0V0ZM39.646 39.424V4.576H4.60177V39.424H39.646ZM8.58407 11.352V24.64C8.58407 30.712 11.9469 34.32 17.6106 34.32C23.4513 34.32 26.8142 30.712 26.8142 24.64V11.352H22.2124V24.64C22.2124 28.072 20.708 30.008 17.6991 30.008C14.5133 30.008 13.0973 27.984 13.0973 24.64V11.352H8.58407ZM32.7434 14.08C34.3363 14.08 35.5752 12.936 35.5752 11.352C35.5752 9.68 34.4248 8.536 32.7434 8.536C31.1504 8.536 29.9115 9.68 29.9115 11.352C29.9115 12.936 31.1504 14.08 32.7434 14.08ZM30.4425 16.192V34.056H35.0442V16.192H30.4425ZM57.8761 26.752C62.8319 26.752 66.1062 23.848 66.1062 19.008C66.1062 14.344 62.9204 11.352 57.8761 11.352H49.2035V34.144H53.8053V26.84H57.8761V26.752ZM57.3451 23.144H53.7168V15.048H57.3451C60 15.048 61.4159 16.544 61.4159 19.008C61.4159 21.648 60 23.144 57.3451 23.144ZM67.6106 25.168C67.6106 30.536 71.0619 34.32 75.9292 34.32C78.8496 34.32 80.708 33.264 81.7699 31.592V34.144H86.3717V16.192H81.7699V19.008C80.6195 17.16 78.7611 16.016 75.9292 16.016C70.9734 16.016 67.6106 19.888 67.6106 25.168ZM81.7699 25.168C81.7699 28.248 79.823 30.272 76.9911 30.272C73.8938 30.272 72.3009 28.072 72.3009 25.168C72.3009 22 74.0708 19.976 76.9911 19.976C79.9115 19.976 81.7699 22.088 81.7699 25.168ZM97.8761 30.184C96.1062 30.184 95.6637 29.392 95.6637 27.808V20.064H99.646V16.192H95.6637V11.264H91.062V16.192H88.938V20.064H91.062V27.808C91.062 32.032 92.9204 34.056 97.3451 34.056H99.7345V30.184H97.8761ZM106.814 18.744V10.296H102.212V34.144H106.814V24.64C106.814 21.56 108.407 19.712 111.15 19.712C113.805 19.712 115.221 21.472 115.221 24.2V34.056H119.823V23.76C119.823 19.096 116.46 16.016 112.212 16.016C109.558 16.016 107.876 16.984 106.814 18.744ZM119.469 10.208V10.912H120.973V15.488H121.858V10.912H123.274V10.208H119.469ZM129.027 10.208L127.168 14.432L125.398 10.208H124.336V15.488H125.133V11.44L126.903 15.488H127.522L129.204 11.44V15.488H130V10.208H129.027Z" fill="#FA4616"/>
</svg>
